<?xml version="1.0" encoding="iso-8859-1"?>
<!-- Generator: Adobe Illustrator 19.0.0, SVG Export Plug-In . SVG Version: 6.00 Build 0)  -->
<svg version="1.1" id="Layer_1" xmlns="http://www.w3.org/2000/svg" xmlns:xlink="http://www.w3.org/1999/xlink" x="0px" y="0px"
	 viewBox="0 0 512 512" style="enable-background:new 0 0 512 512;" xml:space="preserve">
<g>
	<rect x="199.594" y="203.932" style="fill:#E4AD40;" width="60.746" height="43.39"/>
	<path style="fill:#E4AD40;" d="M42.372,160.542L18.508,351.458h474.984l-23.864-190.916H42.372z M156.203,203.932h-34.712v113.123
		c0,4.792-3.886,8.678-8.678,8.678c-4.792,0-8.678-3.886-8.678-8.678V203.932H69.423c-4.792,0-8.678-3.886-8.678-8.678
		s3.886-8.678,8.678-8.678h86.78c4.792,0,8.678,3.886,8.678,8.678S160.996,203.932,156.203,203.932z M277.695,247.322v17.356v52.068
		c0,4.792-3.886,8.678-8.678,8.678c-4.792,0-8.678-3.886-8.678-8.678v-52.068h-60.746v52.068c0,4.792-3.886,8.678-8.678,8.678
		s-8.678-3.886-8.678-8.678v-52.068v-17.356v-52.068c0-4.792,3.886-8.678,8.678-8.678h78.102c4.792,0,8.678,3.886,8.678,8.678
		V247.322z M398.017,311.653c2.775,3.907,1.856,9.326-2.051,12.102c-1.525,1.08-3.28,1.602-5.017,1.602
		c-2.716,0-5.39-1.271-7.085-3.653l-35.926-50.58l-35.926,50.58c-1.695,2.381-4.369,3.653-7.085,3.653
		c-1.737,0-3.492-0.521-5.017-1.602c-3.907-2.775-4.826-8.195-2.051-12.102l39.433-55.517l-39.433-55.517
		c-2.775-3.907-1.856-9.326,2.051-12.102c3.915-2.771,9.322-1.856,12.102,2.051l35.926,50.58l35.926-50.58
		c2.78-3.907,8.191-4.822,12.102-2.051c3.907,2.775,4.826,8.195,2.051,12.102l-39.433,55.517L398.017,311.653z M442.577,317.055
		c0,4.792-3.886,8.678-8.678,8.678s-8.678-3.886-8.678-8.678V195.254c0-4.792,3.886-8.678,8.678-8.678s8.678,3.886,8.678,8.678
		V317.055z"/>
</g>
<g>
	<path style="fill:#314E55;" d="M269.017,186.576h-78.102c-4.792,0-8.678,3.886-8.678,8.678v52.068v17.356v52.068
		c0,4.792,3.886,8.678,8.678,8.678s8.678-3.886,8.678-8.678v-52.068h60.746v52.068c0,4.792,3.886,8.678,8.678,8.678
		c4.792,0,8.678-3.886,8.678-8.678v-52.068v-17.356v-52.068C277.695,190.462,273.809,186.576,269.017,186.576z M199.593,247.322
		v-43.39h60.746v43.39H199.593z"/>
	<path style="fill:#314E55;" d="M156.203,186.576h-86.78c-4.792,0-8.678,3.886-8.678,8.678s3.886,8.678,8.678,8.678h34.712v113.123
		c0,4.792,3.886,8.678,8.678,8.678c4.792,0,8.678-3.886,8.678-8.678V203.932h34.712c4.792,0,8.678-3.886,8.678-8.678
		S160.996,186.576,156.203,186.576z"/>
	<path style="fill:#314E55;" d="M433.899,186.576c-4.792,0-8.678,3.886-8.678,8.678v121.801c0,4.792,3.886,8.678,8.678,8.678
		s8.678-3.886,8.678-8.678V195.254C442.577,190.462,438.691,186.576,433.899,186.576z"/>
	<path style="fill:#314E55;" d="M395.966,188.517c-3.911-2.771-9.322-1.856-12.102,2.051l-35.926,50.58l-35.926-50.58
		c-2.78-3.907-8.186-4.822-12.102-2.051c-3.907,2.775-4.826,8.195-2.051,12.102l39.433,55.517l-39.433,55.517
		c-2.775,3.907-1.856,9.326,2.051,12.102c1.525,1.08,3.28,1.602,5.017,1.602c2.716,0,5.39-1.271,7.085-3.653l35.926-50.58
		l35.926,50.58c1.695,2.381,4.369,3.653,7.085,3.653c1.737,0,3.492-0.521,5.017-1.602c3.907-2.775,4.826-8.195,2.051-12.102
		l-39.433-55.517l39.433-55.517C400.793,196.712,399.873,191.292,395.966,188.517z"/>
	<path style="fill:#314E55;" d="M485.899,150.788c-0.542-4.343-4.233-7.602-8.61-7.602H34.712c-4.377,0-8.068,3.259-8.61,7.602
		L0.067,359.06c-0.309,2.47,0.458,4.953,2.106,6.818c1.644,1.869,4.017,2.936,6.504,2.936h494.645c2.487,0,4.86-1.068,6.504-2.936
		c1.648-1.864,2.415-4.347,2.106-6.818L485.899,150.788z M18.508,351.458l23.864-190.916h427.255l23.864,190.916H18.508z"/>
</g>
<g>
</g>
<g>
</g>
<g>
</g>
<g>
</g>
<g>
</g>
<g>
</g>
<g>
</g>
<g>
</g>
<g>
</g>
<g>
</g>
<g>
</g>
<g>
</g>
<g>
</g>
<g>
</g>
<g>
</g>
</svg>
